<svg xmlns="http://www.w3.org/2000/svg" width="860" height="220" viewBox="0 0 860 220" role="img"><rect x="0.5" y="0.5" width="859" height="219" rx="10" fill="#0D1117" stroke="#1f2a44"/><rect x="0" y="0" width="860" height="3" rx="1.5" fill="#4ade80" opacity="0.9"/><rect x="18" y="16" width="132" height="20" rx="4" fill="#4ade80"/><text x="32" y="30" font-family="ui-monospace,SFMono-Regular,Menlo,Consolas,'DejaVu Sans Mono',monospace" font-size="11" font-weight="700" fill="#0b0d14" text-anchor="start" letter-spacing="0" textLength="104" lengthAdjust="spacingAndGlyphs">COMMIT HEATMAP</text><rect x="26" y="62" width="12" height="12" rx="2.5" fill="#161b22"/><rect x="26" y="77" width="12" height="12" rx="2.5" fill="#161b22"/><rect x="26" y="92" width="12" height="12" rx="2.5" fill="#161b22"/><rect x="26" y="107" width="12" height="12" rx="2.5" fill="#161b22"/><rect x="26" y="122" width="12" height="12" rx="2.5" fill="#161b22"/><rect x="26" y="137" width="12" height="12" rx="2.5" fill="#161b22"/><rect x="26" y="152" width="12" height="12" rx="2.5" fill="#161b22"/><rect x="41" y="62" width="12" height="12" rx="2.5" fill="#161b22"/><rect x="41" y="77" width="12" height="12" rx="2.5" fill="#161b22"/><rect x="41" y="92" width="12" height="12" rx="2.5" fill="#161b22"/><rect x="41" y="107" width="12" height="12" rx="2.5" fill="#161b22"/><rect x="41" y="122" width="12" height="12" rx="2.5" fill="#161b22"/><rect x="41" y="137" width="12" height="12" rx="2.5" fill="#161b22"/><rect x="41" y="152" width="12" height="12" rx="2.5" fill="#161b22"/><rect x="56" y="62" width="12" height="12" rx="2.5" fill="#161b22"/><rect x="56" y="77" width="12" height="12" rx="2.5" fill="#161b22"/><rect x="56" y="92" width="12" height="12" rx="2.5" fill="#161b22"/><rect x="56" y="107" width="12" height="12" rx="2.5" fill="#161b22"/><rect x="56" y="122" width="12" height="12" rx="2.5" fill="#161b22"/><rect x="56" y="137" width="12" height="12" rx="2.5" fill="#161b22"/><rect x="56" y="152" width="12" height="12" rx="2.5" fill="#161b22"/><rect x="71" y="62" width="12" height="12" rx="2.5" fill="#161b22"/><rect x="71" y="77" width="12" height="12" rx="2.5" fill="#161b22"/><rect x="71" y="92" width="12" height="12" rx="2.5" fill="#161b22"/><rect x="71" y="107" width="12" height="12" rx="2.5" fill="#161b22"/><rect x="71" y="122" width="12" height="12" rx="2.5" fill="#161b22"/><rect x="71" y="137" width="12" height="12" rx="2.5" fill="#161b22"/><rect x="71" y="152" width="12" height="12" rx="2.5" fill="#161b22"/><rect x="86" y="62" width="12" height="12" rx="2.5" fill="#161b22"/><rect x="86" y="77" width="12" height="12" rx="2.5" fill="#161b22"/><rect x="86" y="92" width="12" height="12" rx="2.5" fill="#161b22"/><rect x="86" y="107" width="12" height="12" rx="2.5" fill="#161b22"/><rect x="86" y="122" width="12" height="12" rx="2.5" fill="#161b22"/><rect x="86" y="137" width="12" height="12" rx="2.5" fill="#161b22"/><rect x="86" y="152" width="12" height="12" rx="2.5" fill="#161b22"/><rect x="101" y="62" width="12" height="12" rx="2.5" fill="#161b22"/><rect x="101" y="77" width="12" height="12" rx="2.5" fill="#161b22"/><rect x="101" y="92" width="12" height="12" rx="2.5" fill="#161b22"/><rect x="101" y="107" width="12" height="12" rx="2.5" fill="#161b22"/><rect x="101" y="122" width="12" height="12" rx="2.5" fill="#161b22"/><rect x="101" y="137" width="12" height="12" rx="2.5" fill="#161b22"/><rect x="101" y="152" width="12" height="12" rx="2.5" fill="#161b22"/><rect x="116" y="62" width="12" height="12" rx="2.5" fill="#161b22"/><rect x="116" y="77" width="12" height="12" rx="2.5" fill="#161b22"/><rect x="116" y="92" width="12" height="12" rx="2.5" fill="#161b22"/><rect x="116" y="107" width="12" height="12" rx="2.5" fill="#161b22"/><rect x="116" y="122" width="12" height="12" rx="2.5" fill="#161b22"/><rect x="116" y="137" width="12" height="12" rx="2.5" fill="#161b22"/><rect x="116" y="152" width="12" height="12" rx="2.5" fill="#161b22"/><rect x="131" y="62" width="12" height="12" rx="2.5" fill="#161b22"/><rect x="131" y="77" width="12" height="12" rx="2.5" fill="#161b22"/><rect x="131" y="92" width="12" height="12" rx="2.5" fill="#161b22"/><rect x="131" y="107" width="12" height="12" rx="2.5" fill="#161b22"/><rect x="131" y="122" width="12" height="12" rx="2.5" fill="#161b22"/><rect x="131" y="137" width="12" height="12" rx="2.5" fill="#161b22"/><rect x="131" y="152" width="12" height="12" rx="2.5" fill="#161b22"/><rect x="146" y="62" width="12" height="12" rx="2.5" fill="#161b22"/><rect x="146" y="77" width="12" height="12" rx="2.5" fill="#161b22"/><rect x="146" y="92" width="12" height="12" rx="2.5" fill="#161b22"/><rect x="146" y="107" width="12" height="12" rx="2.5" fill="#161b22"/><rect x="146" y="122" width="12" height="12" rx="2.5" fill="#161b22"/><rect x="146" y="137" width="12" height="12" rx="2.5" fill="#161b22"/><rect x="146" y="152" width="12" height="12" rx="2.5" fill="#161b22"/><rect x="161" y="62" width="12" height="12" rx="2.5" fill="#161b22"/><rect x="161" y="77" width="12" height="12" rx="2.5" fill="#161b22"/><rect x="161" y="92" width="12" height="12" rx="2.5" fill="#8a5c05"/><rect x="161" y="107" width="12" height="12" rx="2.5" fill="#161b22"/><rect x="161" y="122" width="12" height="12" rx="2.5" fill="#161b22"/><rect x="161" y="137" width="12" height="12" rx="2.5" fill="#161b22"/><rect x="161" y="152" width="12" height="12" rx="2.5" fill="#161b22"/><rect x="176" y="62" width="12" height="12" rx="2.5" fill="#161b22"/><rect x="176" y="77" width="12" height="12" rx="2.5" fill="#161b22"/><rect x="176" y="92" width="12" height="12" rx="2.5" fill="#161b22"/><rect x="176" y="107" width="12" height="12" rx="2.5" fill="#161b22"/><rect x="176" y="122" width="12" height="12" rx="2.5" fill="#161b22"/><rect x="176" y="137" width="12" height="12" rx="2.5" fill="#161b22"/><rect x="176" y="152" width="12" height="12" rx="2.5" fill="#161b22"/><rect x="191" y="62" width="12" height="12" rx="2.5" fill="#161b22"/><rect x="191" y="77" width="12" height="12" rx="2.5" fill="#161b22"/><rect x="191" y="92" width="12" height="12" rx="2.5" fill="#161b22"/><rect x="191" y="107" width="12" height="12" rx="2.5" fill="#161b22"/><rect x="191" y="122" width="12" height="12" rx="2.5" fill="#161b22"/><rect x="191" y="137" width="12" height="12" rx="2.5" fill="#161b22"/><rect x="191" y="152" width="12" height="12" rx="2.5" fill="#161b22"/><rect x="206" y="62" width="12" height="12" rx="2.5" fill="#161b22"/><rect x="206" y="77" width="12" height="12" rx="2.5" fill="#161b22"/><rect x="206" y="92" width="12" height="12" rx="2.5" fill="#8a5c05"/><rect x="206" y="107" width="12" height="12" rx="2.5" fill="#161b22"/><rect x="206" y="122" width="12" height="12" rx="2.5" fill="#161b22"/><rect x="206" y="137" width="12" height="12" rx="2.5" fill="#161b22"/><rect x="206" y="152" width="12" height="12" rx="2.5" fill="#161b22"/><rect x="221" y="62" width="12" height="12" rx="2.5" fill="#161b22"/><rect x="221" y="77" width="12" height="12" rx="2.5" fill="#161b22"/><rect x="221" y="92" width="12" height="12" rx="2.5" fill="#4a3208"/><rect x="221" y="107" width="12" height="12" rx="2.5" fill="#161b22"/><rect x="221" y="122" width="12" height="12" rx="2.5" fill="#161b22"/><rect x="221" y="137" width="12" height="12" rx="2.5" fill="#161b22"/><rect x="221" y="152" width="12" height="12" rx="2.5" fill="#161b22"/><rect x="236" y="62" width="12" height="12" rx="2.5" fill="#4a3208"/><rect x="236" y="77" width="12" height="12" rx="2.5" fill="#161b22"/><rect x="236" y="92" width="12" height="12" rx="2.5" fill="#161b22"/><rect x="236" y="107" width="12" height="12" rx="2.5" fill="#161b22"/><rect x="236" y="122" width="12" height="12" rx="2.5" fill="#161b22"/><rect x="236" y="137" width="12" height="12" rx="2.5" fill="#161b22"/><rect x="236" y="152" width="12" height="12" rx="2.5" fill="#161b22"/><rect x="251" y="62" width="12" height="12" rx="2.5" fill="#161b22"/><rect x="251" y="77" width="12" height="12" rx="2.5" fill="#161b22"/><rect x="251" y="92" width="12" height="12" rx="2.5" fill="#c98500"/><rect x="251" y="107" width="12" height="12" rx="2.5" fill="#161b22"/><rect x="251" y="122" width="12" height="12" rx="2.5" fill="#161b22"/><rect x="251" y="137" width="12" height="12" rx="2.5" fill="#161b22"/><rect x="251" y="152" width="12" height="12" rx="2.5" fill="#161b22"/><rect x="266" y="62" width="12" height="12" rx="2.5" fill="#4a3208"/><rect x="266" y="77" width="12" height="12" rx="2.5" fill="#161b22"/><rect x="266" y="92" width="12" height="12" rx="2.5" fill="#161b22"/><rect x="266" y="107" width="12" height="12" rx="2.5" fill="#161b22"/><rect x="266" y="122" width="12" height="12" rx="2.5" fill="#161b22"/><rect x="266" y="137" width="12" height="12" rx="2.5" fill="#161b22"/><rect x="266" y="152" width="12" height="12" rx="2.5" fill="#161b22"/><rect x="281" y="62" width="12" height="12" rx="2.5" fill="#161b22"/><rect x="281" y="77" width="12" height="12" rx="2.5" fill="#161b22"/><rect x="281" y="92" width="12" height="12" rx="2.5" fill="#161b22"/><rect x="281" y="107" width="12" height="12" rx="2.5" fill="#161b22"/><rect x="281" y="122" width="12" height="12" rx="2.5" fill="#161b22"/><rect x="281" y="137" width="12" height="12" rx="2.5" fill="#161b22"/><rect x="281" y="152" width="12" height="12" rx="2.5" fill="#161b22"/><rect x="296" y="62" width="12" height="12" rx="2.5" fill="#161b22"/><rect x="296" y="77" width="12" height="12" rx="2.5" fill="#161b22"/><rect x="296" y="92" width="12" height="12" rx="2.5" fill="#161b22"/><rect x="296" y="107" width="12" height="12" rx="2.5" fill="#161b22"/><rect x="296" y="122" width="12" height="12" rx="2.5" fill="#161b22"/><rect x="296" y="137" width="12" height="12" rx="2.5" fill="#161b22"/><rect x="296" y="152" width="12" height="12" rx="2.5" fill="#161b22"/><rect x="311" y="62" width="12" height="12" rx="2.5" fill="#161b22"/><rect x="311" y="77" width="12" height="12" rx="2.5" fill="#161b22"/><rect x="311" y="92" width="12" height="12" rx="2.5" fill="#161b22"/><rect x="311" y="107" width="12" height="12" rx="2.5" fill="#161b22"/><rect x="311" y="122" width="12" height="12" rx="2.5" fill="#161b22"/><rect x="311" y="137" width="12" height="12" rx="2.5" fill="#161b22"/><rect x="311" y="152" width="12" height="12" rx="2.5" fill="#161b22"/><rect x="326" y="62" width="12" height="12" rx="2.5" fill="#161b22"/><rect x="326" y="77" width="12" height="12" rx="2.5" fill="#161b22"/><rect x="326" y="92" width="12" height="12" rx="2.5" fill="#161b22"/><rect x="326" y="107" width="12" height="12" rx="2.5" fill="#161b22"/><rect x="326" y="122" width="12" height="12" rx="2.5" fill="#161b22"/><rect x="326" y="137" width="12" height="12" rx="2.5" fill="#161b22"/><rect x="326" y="152" width="12" height="12" rx="2.5" fill="#161b22"/><rect x="341" y="62" width="12" height="12" rx="2.5" fill="#161b22"/><rect x="341" y="77" width="12" height="12" rx="2.5" fill="#161b22"/><rect x="341" y="92" width="12" height="12" rx="2.5" fill="#161b22"/><rect x="341" y="107" width="12" height="12" rx="2.5" fill="#161b22"/><rect x="341" y="122" width="12" height="12" rx="2.5" fill="#161b22"/><rect x="341" y="137" width="12" height="12" rx="2.5" fill="#161b22"/><rect x="341" y="152" width="12" height="12" rx="2.5" fill="#161b22"/><rect x="356" y="62" width="12" height="12" rx="2.5" fill="#161b22"/><rect x="356" y="77" width="12" height="12" rx="2.5" fill="#161b22"/><rect x="356" y="92" width="12" height="12" rx="2.5" fill="#161b22"/><rect x="356" y="107" width="12" height="12" rx="2.5" fill="#161b22"/><rect x="356" y="122" width="12" height="12" rx="2.5" fill="#161b22"/><rect x="356" y="137" width="12" height="12" rx="2.5" fill="#161b22"/><rect x="356" y="152" width="12" height="12" rx="2.5" fill="#161b22"/><rect x="371" y="62" width="12" height="12" rx="2.5" fill="#161b22"/><rect x="371" y="77" width="12" height="12" rx="2.5" fill="#4a3208"/><rect x="371" y="92" width="12" height="12" rx="2.5" fill="#8a5c05"/><rect x="371" y="107" width="12" height="12" rx="2.5" fill="#161b22"/><rect x="371" y="122" width="12" height="12" rx="2.5" fill="#161b22"/><rect x="371" y="137" width="12" height="12" rx="2.5" fill="#161b22"/><rect x="371" y="152" width="12" height="12" rx="2.5" fill="#161b22"/><rect x="386" y="62" width="12" height="12" rx="2.5" fill="#161b22"/><rect x="386" y="77" width="12" height="12" rx="2.5" fill="#161b22"/><rect x="386" y="92" width="12" height="12" rx="2.5" fill="#161b22"/><rect x="386" y="107" width="12" height="12" rx="2.5" fill="#161b22"/><rect x="386" y="122" width="12" height="12" rx="2.5" fill="#161b22"/><rect x="386" y="137" width="12" height="12" rx="2.5" fill="#161b22"/><rect x="386" y="152" width="12" height="12" rx="2.5" fill="#161b22"/><rect x="401" y="62" width="12" height="12" rx="2.5" fill="#161b22"/><rect x="401" y="77" width="12" height="12" rx="2.5" fill="#161b22"/><rect x="401" y="92" width="12" height="12" rx="2.5" fill="#161b22"/><rect x="401" y="107" width="12" height="12" rx="2.5" fill="#161b22"/><rect x="401" y="122" width="12" height="12" rx="2.5" fill="#161b22"/><rect x="401" y="137" width="12" height="12" rx="2.5" fill="#161b22"/><rect x="401" y="152" width="12" height="12" rx="2.5" fill="#161b22"/><rect x="416" y="62" width="12" height="12" rx="2.5" fill="#161b22"/><rect x="416" y="77" width="12" height="12" rx="2.5" fill="#161b22"/><rect x="416" y="92" width="12" height="12" rx="2.5" fill="#161b22"/><rect x="416" y="107" width="12" height="12" rx="2.5" fill="#161b22"/><rect x="416" y="122" width="12" height="12" rx="2.5" fill="#161b22"/><rect x="416" y="137" width="12" height="12" rx="2.5" fill="#161b22"/><rect x="416" y="152" width="12" height="12" rx="2.5" fill="#161b22"/><rect x="431" y="62" width="12" height="12" rx="2.5" fill="#161b22"/><rect x="431" y="77" width="12" height="12" rx="2.5" fill="#8a5c05"/><rect x="431" y="92" width="12" height="12" rx="2.5" fill="#4a3208"/><rect x="431" y="107" width="12" height="12" rx="2.5" fill="#161b22"/><rect x="431" y="122" width="12" height="12" rx="2.5" fill="#161b22"/><rect x="431" y="137" width="12" height="12" rx="2.5" fill="#161b22"/><rect x="431" y="152" width="12" height="12" rx="2.5" fill="#161b22"/><rect x="446" y="62" width="12" height="12" rx="2.5" fill="#161b22"/><rect x="446" y="77" width="12" height="12" rx="2.5" fill="#161b22"/><rect x="446" y="92" width="12" height="12" rx="2.5" fill="#161b22"/><rect x="446" y="107" width="12" height="12" rx="2.5" fill="#161b22"/><rect x="446" y="122" width="12" height="12" rx="2.5" fill="#161b22"/><rect x="446" y="137" width="12" height="12" rx="2.5" fill="#161b22"/><rect x="446" y="152" width="12" height="12" rx="2.5" fill="#161b22"/><rect x="461" y="62" width="12" height="12" rx="2.5" fill="#161b22"/><rect x="461" y="77" width="12" height="12" rx="2.5" fill="#161b22"/><rect x="461" y="92" width="12" height="12" rx="2.5" fill="#161b22"/><rect x="461" y="107" width="12" height="12" rx="2.5" fill="#161b22"/><rect x="461" y="122" width="12" height="12" rx="2.5" fill="#161b22"/><rect x="461" y="137" width="12" height="12" rx="2.5" fill="#161b22"/><rect x="461" y="152" width="12" height="12" rx="2.5" fill="#161b22"/><rect x="476" y="62" width="12" height="12" rx="2.5" fill="#161b22"/><rect x="476" y="77" width="12" height="12" rx="2.5" fill="#161b22"/><rect x="476" y="92" width="12" height="12" rx="2.5" fill="#161b22"/><rect x="476" y="107" width="12" height="12" rx="2.5" fill="#161b22"/><rect x="476" y="122" width="12" height="12" rx="2.5" fill="#161b22"/><rect x="476" y="137" width="12" height="12" rx="2.5" fill="#161b22"/><rect x="476" y="152" width="12" height="12" rx="2.5" fill="#161b22"/><rect x="491" y="62" width="12" height="12" rx="2.5" fill="#161b22"/><rect x="491" y="77" width="12" height="12" rx="2.5" fill="#161b22"/><rect x="491" y="92" width="12" height="12" rx="2.5" fill="#161b22"/><rect x="491" y="107" width="12" height="12" rx="2.5" fill="#161b22"/><rect x="491" y="122" width="12" height="12" rx="2.5" fill="#161b22"/><rect x="491" y="137" width="12" height="12" rx="2.5" fill="#161b22"/><rect x="491" y="152" width="12" height="12" rx="2.5" fill="#161b22"/><rect x="506" y="62" width="12" height="12" rx="2.5" fill="#161b22"/><rect x="506" y="77" width="12" height="12" rx="2.5" fill="#161b22"/><rect x="506" y="92" width="12" height="12" rx="2.5" fill="#161b22"/><rect x="506" y="107" width="12" height="12" rx="2.5" fill="#161b22"/><rect x="506" y="122" width="12" height="12" rx="2.5" fill="#161b22"/><rect x="506" y="137" width="12" height="12" rx="2.5" fill="#161b22"/><rect x="506" y="152" width="12" height="12" rx="2.5" fill="#161b22"/><rect x="521" y="62" width="12" height="12" rx="2.5" fill="#161b22"/><rect x="521" y="77" width="12" height="12" rx="2.5" fill="#161b22"/><rect x="521" y="92" width="12" height="12" rx="2.5" fill="#161b22"/><rect x="521" y="107" width="12" height="12" rx="2.5" fill="#4a3208"/><rect x="521" y="122" width="12" height="12" rx="2.5" fill="#4a3208"/><rect x="521" y="137" width="12" height="12" rx="2.5" fill="#161b22"/><rect x="521" y="152" width="12" height="12" rx="2.5" fill="#161b22"/><rect x="536" y="62" width="12" height="12" rx="2.5" fill="#ffb000"/><rect x="536" y="77" width="12" height="12" rx="2.5" fill="#8a5c05"/><rect x="536" y="92" width="12" height="12" rx="2.5" fill="#c98500"/><rect x="536" y="107" width="12" height="12" rx="2.5" fill="#161b22"/><rect x="536" y="122" width="12" height="12" rx="2.5" fill="#161b22"/><rect x="536" y="137" width="12" height="12" rx="2.5" fill="#ffb000"/><rect x="536" y="152" width="12" height="12" rx="2.5" fill="#161b22"/><rect x="551" y="62" width="12" height="12" rx="2.5" fill="#161b22"/><rect x="551" y="77" width="12" height="12" rx="2.5" fill="#161b22"/><rect x="551" y="92" width="12" height="12" rx="2.5" fill="#161b22"/><rect x="551" y="107" width="12" height="12" rx="2.5" fill="#161b22"/><rect x="551" y="122" width="12" height="12" rx="2.5" fill="#161b22"/><rect x="551" y="137" width="12" height="12" rx="2.5" fill="#8a5c05"/><rect x="551" y="152" width="12" height="12" rx="2.5" fill="#161b22"/><rect x="566" y="62" width="12" height="12" rx="2.5" fill="#161b22"/><rect x="566" y="77" width="12" height="12" rx="2.5" fill="#161b22"/><rect x="566" y="92" width="12" height="12" rx="2.5" fill="#161b22"/><rect x="566" y="107" width="12" height="12" rx="2.5" fill="#161b22"/><rect x="566" y="122" width="12" height="12" rx="2.5" fill="#161b22"/><rect x="566" y="137" width="12" height="12" rx="2.5" fill="#161b22"/><rect x="566" y="152" width="12" height="12" rx="2.5" fill="#161b22"/><rect x="581" y="62" width="12" height="12" rx="2.5" fill="#161b22"/><rect x="581" y="77" width="12" height="12" rx="2.5" fill="#161b22"/><rect x="581" y="92" width="12" height="12" rx="2.5" fill="#161b22"/><rect x="581" y="107" width="12" height="12" rx="2.5" fill="#161b22"/><rect x="581" y="122" width="12" height="12" rx="2.5" fill="#161b22"/><rect x="581" y="137" width="12" height="12" rx="2.5" fill="#161b22"/><rect x="581" y="152" width="12" height="12" rx="2.5" fill="#161b22"/><rect x="596" y="62" width="12" height="12" rx="2.5" fill="#161b22"/><rect x="596" y="77" width="12" height="12" rx="2.5" fill="#161b22"/><rect x="596" y="92" width="12" height="12" rx="2.5" fill="#161b22"/><rect x="596" y="107" width="12" height="12" rx="2.5" fill="#161b22"/><rect x="596" y="122" width="12" height="12" rx="2.5" fill="#161b22"/><rect x="596" y="137" width="12" height="12" rx="2.5" fill="#161b22"/><rect x="596" y="152" width="12" height="12" rx="2.5" fill="#161b22"/><rect x="611" y="62" width="12" height="12" rx="2.5" fill="#161b22"/><rect x="611" y="77" width="12" height="12" rx="2.5" fill="#161b22"/><rect x="611" y="92" width="12" height="12" rx="2.5" fill="#161b22"/><rect x="611" y="107" width="12" height="12" rx="2.5" fill="#161b22"/><rect x="611" y="122" width="12" height="12" rx="2.5" fill="#161b22"/><rect x="611" y="137" width="12" height="12" rx="2.5" fill="#161b22"/><rect x="611" y="152" width="12" height="12" rx="2.5" fill="#161b22"/><rect x="626" y="62" width="12" height="12" rx="2.5" fill="#161b22"/><rect x="626" y="77" width="12" height="12" rx="2.5" fill="#161b22"/><rect x="626" y="92" width="12" height="12" rx="2.5" fill="#161b22"/><rect x="626" y="107" width="12" height="12" rx="2.5" fill="#161b22"/><rect x="626" y="122" width="12" height="12" rx="2.5" fill="#161b22"/><rect x="626" y="137" width="12" height="12" rx="2.5" fill="#161b22"/><rect x="626" y="152" width="12" height="12" rx="2.5" fill="#161b22"/><rect x="641" y="62" width="12" height="12" rx="2.5" fill="#161b22"/><rect x="641" y="77" width="12" height="12" rx="2.5" fill="#161b22"/><rect x="641" y="92" width="12" height="12" rx="2.5" fill="#161b22"/><rect x="641" y="107" width="12" height="12" rx="2.5" fill="#161b22"/><rect x="641" y="122" width="12" height="12" rx="2.5" fill="#161b22"/><rect x="641" y="137" width="12" height="12" rx="2.5" fill="#161b22"/><rect x="641" y="152" width="12" height="12" rx="2.5" fill="#161b22"/><rect x="656" y="62" width="12" height="12" rx="2.5" fill="#161b22"/><rect x="656" y="77" width="12" height="12" rx="2.5" fill="#161b22"/><rect x="656" y="92" width="12" height="12" rx="2.5" fill="#161b22"/><rect x="656" y="107" width="12" height="12" rx="2.5" fill="#161b22"/><rect x="656" y="122" width="12" height="12" rx="2.5" fill="#161b22"/><rect x="656" y="137" width="12" height="12" rx="2.5" fill="#161b22"/><rect x="656" y="152" width="12" height="12" rx="2.5" fill="#161b22"/><rect x="671" y="62" width="12" height="12" rx="2.5" fill="#161b22"/><rect x="671" y="77" width="12" height="12" rx="2.5" fill="#161b22"/><rect x="671" y="92" width="12" height="12" rx="2.5" fill="#161b22"/><rect x="671" y="107" width="12" height="12" rx="2.5" fill="#161b22"/><rect x="671" y="122" width="12" height="12" rx="2.5" fill="#161b22"/><rect x="671" y="137" width="12" height="12" rx="2.5" fill="#161b22"/><rect x="671" y="152" width="12" height="12" rx="2.5" fill="#161b22"/><rect x="686" y="62" width="12" height="12" rx="2.5" fill="#161b22"/><rect x="686" y="77" width="12" height="12" rx="2.5" fill="#161b22"/><rect x="686" y="92" width="12" height="12" rx="2.5" fill="#161b22"/><rect x="686" y="107" width="12" height="12" rx="2.5" fill="#161b22"/><rect x="686" y="122" width="12" height="12" rx="2.5" fill="#161b22"/><rect x="686" y="137" width="12" height="12" rx="2.5" fill="#161b22"/><rect x="686" y="152" width="12" height="12" rx="2.5" fill="#161b22"/><rect x="701" y="62" width="12" height="12" rx="2.5" fill="#161b22"/><rect x="701" y="77" width="12" height="12" rx="2.5" fill="#161b22"/><rect x="701" y="92" width="12" height="12" rx="2.5" fill="#161b22"/><rect x="701" y="107" width="12" height="12" rx="2.5" fill="#161b22"/><rect x="701" y="122" width="12" height="12" rx="2.5" fill="#161b22"/><rect x="701" y="137" width="12" height="12" rx="2.5" fill="#161b22"/><rect x="701" y="152" width="12" height="12" rx="2.5" fill="#161b22"/><rect x="716" y="62" width="12" height="12" rx="2.5" fill="#161b22"/><rect x="716" y="77" width="12" height="12" rx="2.5" fill="#161b22"/><rect x="716" y="92" width="12" height="12" rx="2.5" fill="#161b22"/><rect x="716" y="107" width="12" height="12" rx="2.5" fill="#161b22"/><rect x="716" y="122" width="12" height="12" rx="2.5" fill="#161b22"/><rect x="716" y="137" width="12" height="12" rx="2.5" fill="#161b22"/><rect x="716" y="152" width="12" height="12" rx="2.5" fill="#161b22"/><rect x="731" y="62" width="12" height="12" rx="2.5" fill="#161b22"/><rect x="731" y="77" width="12" height="12" rx="2.5" fill="#161b22"/><rect x="731" y="92" width="12" height="12" rx="2.5" fill="#161b22"/><rect x="731" y="107" width="12" height="12" rx="2.5" fill="#161b22"/><rect x="731" y="122" width="12" height="12" rx="2.5" fill="#161b22"/><rect x="731" y="137" width="12" height="12" rx="2.5" fill="#161b22"/><rect x="731" y="152" width="12" height="12" rx="2.5" fill="#161b22"/><rect x="746" y="62" width="12" height="12" rx="2.5" fill="#161b22"/><rect x="746" y="77" width="12" height="12" rx="2.5" fill="#161b22"/><rect x="746" y="92" width="12" height="12" rx="2.5" fill="#161b22"/><rect x="746" y="107" width="12" height="12" rx="2.5" fill="#161b22"/><rect x="746" y="122" width="12" height="12" rx="2.5" fill="#161b22"/><rect x="746" y="137" width="12" height="12" rx="2.5" fill="#161b22"/><rect x="746" y="152" width="12" height="12" rx="2.5" fill="#161b22"/><rect x="761" y="62" width="12" height="12" rx="2.5" fill="#161b22"/><rect x="761" y="77" width="12" height="12" rx="2.5" fill="#161b22"/><rect x="761" y="92" width="12" height="12" rx="2.5" fill="#161b22"/><rect x="761" y="107" width="12" height="12" rx="2.5" fill="#161b22"/><rect x="761" y="122" width="12" height="12" rx="2.5" fill="#4a3208"/><rect x="761" y="137" width="12" height="12" rx="2.5" fill="#4a3208"/><rect x="761" y="152" width="12" height="12" rx="2.5" fill="#161b22"/><rect x="776" y="62" width="12" height="12" rx="2.5" fill="#4a3208"/><rect x="776" y="77" width="12" height="12" rx="2.5" fill="#161b22"/><rect x="776" y="92" width="12" height="12" rx="2.5" fill="#161b22"/><rect x="776" y="107" width="12" height="12" rx="2.5" fill="#161b22"/><rect x="776" y="122" width="12" height="12" rx="2.5" fill="#161b22"/><rect x="776" y="137" width="12" height="12" rx="2.5" fill="#161b22"/><rect x="776" y="152" width="12" height="12" rx="2.5" fill="#161b22"/><rect x="791" y="62" width="12" height="12" rx="2.5" fill="#161b22"/><rect x="791" y="77" width="12" height="12" rx="2.5" fill="#161b22"/><rect x="791" y="92" width="12" height="12" rx="2.5" fill="#c98500"/><rect x="791" y="107" width="12" height="12" rx="2.5" fill="#161b22"/><rect x="791" y="122" width="12" height="12" rx="2.5" fill="#161b22"/><rect x="791" y="137" width="12" height="12" rx="2.5" fill="#161b22"/><rect x="791" y="152" width="12" height="12" rx="2.5" fill="#161b22"/><rect x="806" y="62" width="12" height="12" rx="2.5" fill="#161b22"/><text x="26" y="54" font-family="ui-monospace,SFMono-Regular,Menlo,Consolas,'DejaVu Sans Mono',monospace" font-size="9" font-weight="400" fill="#5b6577" text-anchor="start" letter-spacing="0">Aug</text><text x="116" y="54" font-family="ui-monospace,SFMono-Regular,Menlo,Consolas,'DejaVu Sans Mono',monospace" font-size="9" font-weight="400" fill="#5b6577" text-anchor="start" letter-spacing="0">Oct</text><text x="176" y="54" font-family="ui-monospace,SFMono-Regular,Menlo,Consolas,'DejaVu Sans Mono',monospace" font-size="9" font-weight="400" fill="#5b6577" text-anchor="start" letter-spacing="0">Nov</text><text x="251" y="54" font-family="ui-monospace,SFMono-Regular,Menlo,Consolas,'DejaVu Sans Mono',monospace" font-size="9" font-weight="400" fill="#5b6577" text-anchor="start" letter-spacing="0">Dec</text><text x="311" y="54" font-family="ui-monospace,SFMono-Regular,Menlo,Consolas,'DejaVu Sans Mono',monospace" font-size="9" font-weight="400" fill="#5b6577" text-anchor="start" letter-spacing="0">Jan</text><text x="371" y="54" font-family="ui-monospace,SFMono-Regular,Menlo,Consolas,'DejaVu Sans Mono',monospace" font-size="9" font-weight="400" fill="#5b6577" text-anchor="start" letter-spacing="0">Feb</text><text x="431" y="54" font-family="ui-monospace,SFMono-Regular,Menlo,Consolas,'DejaVu Sans Mono',monospace" font-size="9" font-weight="400" fill="#5b6577" text-anchor="start" letter-spacing="0">Mar</text><text x="506" y="54" font-family="ui-monospace,SFMono-Regular,Menlo,Consolas,'DejaVu Sans Mono',monospace" font-size="9" font-weight="400" fill="#5b6577" text-anchor="start" letter-spacing="0">Apr</text><text x="566" y="54" font-family="ui-monospace,SFMono-Regular,Menlo,Consolas,'DejaVu Sans Mono',monospace" font-size="9" font-weight="400" fill="#5b6577" text-anchor="start" letter-spacing="0">May</text><text x="641" y="54" font-family="ui-monospace,SFMono-Regular,Menlo,Consolas,'DejaVu Sans Mono',monospace" font-size="9" font-weight="400" fill="#5b6577" text-anchor="start" letter-spacing="0">Jun</text><text x="701" y="54" font-family="ui-monospace,SFMono-Regular,Menlo,Consolas,'DejaVu Sans Mono',monospace" font-size="9" font-weight="400" fill="#5b6577" text-anchor="start" letter-spacing="0">Jul</text><text x="761" y="54" font-family="ui-monospace,SFMono-Regular,Menlo,Consolas,'DejaVu Sans Mono',monospace" font-size="9" font-weight="400" fill="#5b6577" text-anchor="start" letter-spacing="0">Aug</text><text x="636" y="198" font-family="ui-monospace,SFMono-Regular,Menlo,Consolas,'DejaVu Sans Mono',monospace" font-size="9" font-weight="400" fill="#5b6577" text-anchor="end" letter-spacing="0">less</text><rect x="642" y="188" width="11" height="11" rx="2.5" fill="#161b22"/><rect x="657" y="188" width="11" height="11" rx="2.5" fill="#4a3208"/><rect x="672" y="188" width="11" height="11" rx="2.5" fill="#8a5c05"/><rect x="687" y="188" width="11" height="11" rx="2.5" fill="#c98500"/><rect x="702" y="188" width="11" height="11" rx="2.5" fill="#ffb000"/><text x="724" y="198" font-family="ui-monospace,SFMono-Regular,Menlo,Consolas,'DejaVu Sans Mono',monospace" font-size="9" font-weight="400" fill="#5b6577" text-anchor="start" letter-spacing="0">more</text><text x="26" y="200" font-family="ui-monospace,SFMono-Regular,Menlo,Consolas,'DejaVu Sans Mono',monospace" font-size="14" font-weight="700" fill="#ffb000" text-anchor="start" letter-spacing="0">112</text><text x="61" y="200" font-family="ui-monospace,SFMono-Regular,Menlo,Consolas,'DejaVu Sans Mono',monospace" font-size="11" font-weight="400" fill="#5b6577" text-anchor="start" letter-spacing="0">contributions</text><text x="172.8" y="200" font-family="ui-monospace,SFMono-Regular,Menlo,Consolas,'DejaVu Sans Mono',monospace" font-size="14" font-weight="700" fill="#ffb000" text-anchor="start" letter-spacing="0">1d</text><text x="198.8" y="200" font-family="ui-monospace,SFMono-Regular,Menlo,Consolas,'DejaVu Sans Mono',monospace" font-size="11" font-weight="400" fill="#5b6577" text-anchor="start" letter-spacing="0">current streak</text><text x="317.2" y="200" font-family="ui-monospace,SFMono-Regular,Menlo,Consolas,'DejaVu Sans Mono',monospace" font-size="14" font-weight="700" fill="#ffb000" text-anchor="start" letter-spacing="0">3d</text><text x="343.2" y="200" font-family="ui-monospace,SFMono-Regular,Menlo,Consolas,'DejaVu Sans Mono',monospace" font-size="11" font-weight="400" fill="#5b6577" text-anchor="start" letter-spacing="0">longest streak</text></svg>