<svg xmlns="http://www.w3.org/2000/svg" width="424" height="300" viewBox="0 0 424 300" role="img"><rect x="0.5" y="0.5" width="423" height="299" rx="10" fill="#0D1117" stroke="#1f2a44"/><rect x="0" y="0" width="424" height="3" rx="1.5" fill="#a78bfa" opacity="0.9"/><rect x="18" y="16" width="95" height="20" rx="4" fill="#a78bfa"/><text x="32" y="30" font-family="ui-monospace,SFMono-Regular,Menlo,Consolas,'DejaVu Sans Mono',monospace" font-size="11" font-weight="700" fill="#0b0d14" text-anchor="start" letter-spacing="0" textLength="67" lengthAdjust="spacingAndGlyphs">SPELLBOOK</text><rect x="20.0" y="56" width="287.5" height="16" rx="3" fill="#3987e5"/><rect x="309.5" y="56" width="39.1" height="16" rx="3" fill="#d95926"/><rect x="350.7" y="56" width="23.9" height="16" rx="3" fill="#199e70"/><rect x="376.6" y="56" width="19.2" height="16" rx="3" fill="#c98500"/><rect x="397.8" y="56" width="2.1" height="16" rx="3" fill="#d55181"/><rect x="401.9" y="56" width="2.0" height="16" rx="3" fill="#008300"/><rect x="405.9" y="56" width="2.0" height="16" rx="3" fill="#39414f"/><rect x="20" y="95" width="10" height="10" rx="2" fill="#3987e5"/><text x="38" y="104" font-family="ui-monospace,SFMono-Regular,Menlo,Consolas,'DejaVu Sans Mono',monospace" font-size="12" font-weight="400" fill="#e6edf3" text-anchor="start" letter-spacing="0">TypeScript</text><text x="404" y="104" font-family="ui-monospace,SFMono-Regular,Menlo,Consolas,'DejaVu Sans Mono',monospace" font-size="12" font-weight="400" fill="#8b949e" text-anchor="end" letter-spacing="0"> 75.4%</text><rect x="20" y="121" width="10" height="10" rx="2" fill="#d95926"/><text x="38" y="130" font-family="ui-monospace,SFMono-Regular,Menlo,Consolas,'DejaVu Sans Mono',monospace" font-size="12" font-weight="400" fill="#e6edf3" text-anchor="start" letter-spacing="0">Python</text><text x="404" y="130" font-family="ui-monospace,SFMono-Regular,Menlo,Consolas,'DejaVu Sans Mono',monospace" font-size="12" font-weight="400" fill="#8b949e" text-anchor="end" letter-spacing="0"> 10.7%</text><rect x="20" y="147" width="10" height="10" rx="2" fill="#199e70"/><text x="38" y="156" font-family="ui-monospace,SFMono-Regular,Menlo,Consolas,'DejaVu Sans Mono',monospace" font-size="12" font-weight="400" fill="#e6edf3" text-anchor="start" letter-spacing="0">HTML</text><text x="404" y="156" font-family="ui-monospace,SFMono-Regular,Menlo,Consolas,'DejaVu Sans Mono',monospace" font-size="12" font-weight="400" fill="#8b949e" text-anchor="end" letter-spacing="0">  6.7%</text><rect x="20" y="173" width="10" height="10" rx="2" fill="#c98500"/><text x="38" y="182" font-family="ui-monospace,SFMono-Regular,Menlo,Consolas,'DejaVu Sans Mono',monospace" font-size="12" font-weight="400" fill="#e6edf3" text-anchor="start" letter-spacing="0">Jupyter Notebook</text><text x="404" y="182" font-family="ui-monospace,SFMono-Regular,Menlo,Consolas,'DejaVu Sans Mono',monospace" font-size="12" font-weight="400" fill="#8b949e" text-anchor="end" letter-spacing="0">  5.5%</text><rect x="20" y="199" width="10" height="10" rx="2" fill="#d55181"/><text x="38" y="208" font-family="ui-monospace,SFMono-Regular,Menlo,Consolas,'DejaVu Sans Mono',monospace" font-size="12" font-weight="400" fill="#e6edf3" text-anchor="start" letter-spacing="0">CSS</text><text x="404" y="208" font-family="ui-monospace,SFMono-Regular,Menlo,Consolas,'DejaVu Sans Mono',monospace" font-size="12" font-weight="400" fill="#8b949e" text-anchor="end" letter-spacing="0">  1.1%</text><rect x="20" y="225" width="10" height="10" rx="2" fill="#008300"/><text x="38" y="234" font-family="ui-monospace,SFMono-Regular,Menlo,Consolas,'DejaVu Sans Mono',monospace" font-size="12" font-weight="400" fill="#e6edf3" text-anchor="start" letter-spacing="0">JavaScript</text><text x="404" y="234" font-family="ui-monospace,SFMono-Regular,Menlo,Consolas,'DejaVu Sans Mono',monospace" font-size="12" font-weight="400" fill="#8b949e" text-anchor="end" letter-spacing="0">  0.5%</text><rect x="20" y="251" width="10" height="10" rx="2" fill="#39414f"/><text x="38" y="260" font-family="ui-monospace,SFMono-Regular,Menlo,Consolas,'DejaVu Sans Mono',monospace" font-size="12" font-weight="400" fill="#e6edf3" text-anchor="start" letter-spacing="0">Other</text><text x="404" y="260" font-family="ui-monospace,SFMono-Regular,Menlo,Consolas,'DejaVu Sans Mono',monospace" font-size="12" font-weight="400" fill="#8b949e" text-anchor="end" letter-spacing="0">  0.0%</text></svg>